<svg xmlns="http://www.w3.org/2000/svg" viewBox="0 0 800 300">
  <!-- Tokyo Tower -->
  <g transform="translate(350, 0)">
    <path d="M50 0L55 20L80 280H70L60 140L55 280H45L40 140L30 280H20L45 20Z" fill="#F07F2C"/>
    <rect x="40" y="80" width="20" height="5" fill="#F07F2C"/>
    <rect x="35" y="150" width="30" height="5" fill="#F07F2C"/>
    <path d="M15 200H85" stroke="#F07F2C" stroke-width="3" fill="none"/>
  </g>

  <!-- Buildings Left -->
  <rect x="0" y="150" width="60" height="150" fill="#F07F2C"/>
  <rect x="5" y="160" width="15" height="20" fill="white" opacity="0.3"/>
  <rect x="25" y="160" width="15" height="20" fill="white" opacity="0.3"/>
  <rect x="5" y="190" width="15" height="20" fill="white" opacity="0.3"/>
  <rect x="25" y="190" width="15" height="20" fill="white" opacity="0.3"/>

  <rect x="70" y="100" width="80" height="200" fill="#F07F2C"/>
  <rect x="80" y="110" width="20" height="25" fill="white" opacity="0.3"/>
  <rect x="110" y="110" width="20" height="25" fill="white" opacity="0.3"/>
  <rect x="80" y="145" width="20" height="25" fill="white" opacity="0.3"/>
  <rect x="110" y="145" width="20" height="25" fill="white" opacity="0.3"/>
  <rect x="80" y="180" width="20" height="25" fill="white" opacity="0.3"/>
  <rect x="110" y="180" width="20" height="25" fill="white" opacity="0.3"/>

  <rect x="160" y="180" width="50" height="120" fill="#F07F2C"/>
  <rect x="165" y="190" width="12" height="15" fill="white" opacity="0.3"/>
  <rect x="182" y="190" width="12" height="15" fill="white" opacity="0.3"/>

  <rect x="220" y="120" width="70" height="180" fill="#F07F2C"/>
  <rect x="230" y="130" width="15" height="20" fill="white" opacity="0.3"/>
  <rect x="250" y="130" width="15" height="20" fill="white" opacity="0.3"/>
  <rect x="230" y="160" width="15" height="20" fill="white" opacity="0.3"/>
  <rect x="250" y="160" width="15" height="20" fill="white" opacity="0.3"/>

  <!-- Buildings Right -->
  <rect x="450" y="140" width="60" height="160" fill="#F07F2C"/>
  <rect x="455" y="150" width="15" height="20" fill="white" opacity="0.3"/>
  <rect x="480" y="150" width="15" height="20" fill="white" opacity="0.3"/>
  <rect x="455" y="180" width="15" height="20" fill="white" opacity="0.3"/>
  <rect x="480" y="180" width="15" height="20" fill="white" opacity="0.3"/>

  <rect x="520" y="80" width="90" height="220" fill="#F07F2C"/>
  <rect x="530" y="90" width="20" height="25" fill="white" opacity="0.3"/>
  <rect x="560" y="90" width="20" height="25" fill="white" opacity="0.3"/>
  <rect x="530" y="125" width="20" height="25" fill="white" opacity="0.3"/>
  <rect x="560" y="125" width="20" height="25" fill="white" opacity="0.3"/>
  <rect x="530" y="160" width="20" height="25" fill="white" opacity="0.3"/>
  <rect x="560" y="160" width="20" height="25" fill="white" opacity="0.3"/>

  <rect x="620" y="160" width="50" height="140" fill="#F07F2C"/>
  <rect x="625" y="170" width="12" height="15" fill="white" opacity="0.3"/>
  <rect x="652" y="170" width="12" height="15" fill="white" opacity="0.3"/>

  <rect x="680" y="110" width="70" height="190" fill="#F07F2C"/>
  <rect x="690" y="120" width="15" height="20" fill="white" opacity="0.3"/>
  <rect x="720" y="120" width="15" height="20" fill="white" opacity="0.3"/>
  <rect x="690" y="150" width="15" height="20" fill="white" opacity="0.3"/>
  <rect x="720" y="150" width="15" height="20" fill="white" opacity="0.3"/>

  <rect x="760" y="200" width="40" height="100" fill="#F07F2C"/>
  <rect x="765" y="210" width="10" height="12" fill="white" opacity="0.3"/>
  <rect x="780" y="210" width="10" height="12" fill="white" opacity="0.3"/>
</svg>
