<svg xmlns="http://www.w3.org/2000/svg" viewBox="0 0 32 32">
  <defs>
    <linearGradient id="grad" x1="0%" y1="0%" x2="100%" y2="100%">
      <stop offset="0%" style="stop-color:#F07F2C"/>
      <stop offset="100%" style="stop-color:#F9A825"/>
    </linearGradient>
  </defs>
  <path d="M8 16C8 19.3 5.5 22 2.5 22C0.8 22 0 20.5 0 19C0 15.7 2.5 13 5.5 13C7.2 13 8 14.5 8 16ZM8 16C8 12.7 10.5 10 13.5 10C15.2 10 16 11.5 16 13C16 16.3 13.5 19 10.5 19C8.8 19 8 17.5 8 16Z" fill="url(#grad)"/>
  <path d="M24 16C24 19.3 21.5 22 18.5 22C16.8 22 16 20.5 16 19C16 15.7 18.5 13 21.5 13C23.2 13 24 14.5 24 16ZM24 16C24 12.7 26.5 10 29.5 10C31.2 10 32 11.5 32 13C32 16.3 29.5 19 26.5 19C24.8 19 24 17.5 24 16Z" fill="url(#grad)"/>
</svg>
